<?xml version="1.0" standalone="no"?>
<!DOCTYPE svg PUBLIC "-//W3C//DTD SVG 20010904//EN"
 "http://www.w3.org/TR/2001/REC-SVG-20010904/DTD/svg10.dtd">
<svg version="1.0" xmlns="http://www.w3.org/2000/svg"
 width="500.000000pt" height="500.000000pt" viewBox="0 0 500.000000 500.000000"
 preserveAspectRatio="xMidYMid meet">
<metadata>
Created by potrace 1.14, written by Peter Selinger 2001-2017
</metadata>
<g transform="translate(0.000000,500.000000) scale(0.100000,-0.100000)"
fill="#000000" stroke="none">
<path d="M0 2500 l0 -2500 2500 0 2500 0 0 2500 0 2500 -2500 0 -2500 0 0
-2500z m2548 538 l-3 -293 -100 -5 -100 -5 45 -17 c66 -26 115 -71 145 -133
61 -124 18 -294 -92 -366 -73 -48 -79 -49 -564 -49 l-459 0 0 290 0 290 118 1
117 0 -62 23 c-113 42 -174 107 -195 207 -15 72 -4 135 35 199 40 66 90 107
159 131 48 17 94 18 506 19 l452 0 -2 -292z m825 263 c89 -35 156 -95 197
-176 30 -59 35 -77 35 -139 -1 -69 -19 -125 -57 -178 -10 -14 -6 -23 26 -58
55 -62 77 -118 77 -198 0 -110 -46 -204 -134 -275 -118 -96 -174 -107 -574
-107 l-323 0 0 581 0 580 348 -3 c336 -3 349 -4 405 -27z m-1988 -1285 c34
-15 61 -49 50 -66 -11 -17 -44 -11 -55 11 -9 15 -19 19 -43 17 -27 -2 -32 -7
-32 -28 0 -20 8 -27 50 -43 64 -23 88 -48 88 -87 0 -77 -115 -113 -177 -55
-14 13 -26 33 -26 45 0 30 43 27 64 -5 19 -28 57 -33 76 -10 19 23 4 44 -47
67 -64 27 -83 46 -83 79 0 42 10 60 44 75 40 17 49 17 91 0z m1141 -17 c13
-13 24 -31 24 -41 0 -25 -42 -24 -58 3 -18 28 -66 23 -70 -9 -3 -19 6 -26 54
-48 65 -28 83 -47 84 -84 1 -101 -185 -114 -202 -15 -5 31 44 33 57 3 8 -18
18 -23 45 -23 32 0 35 2 35 30 0 26 -6 31 -44 46 -84 31 -111 76 -75 127 33
47 106 52 150 11z m862 5 c80 -53 81 -188 1 -247 -34 -25 -118 -26 -154 -3
-47 31 -67 75 -62 138 4 64 27 99 82 124 35 16 99 10 133 -12z m284 16 c34
-10 78 -50 78 -71 0 -17 -52 -9 -77 11 -60 47 -133 3 -133 -80 0 -85 81 -130
135 -75 36 36 33 55 -11 55 -28 0 -35 3 -32 18 3 14 14 17 63 17 l60 0 3 -77
c3 -78 3 -78 -23 -78 -16 0 -25 6 -25 15 0 19 -9 19 -32 -2 -21 -19 -94 -21
-127 -3 -37 19 -61 70 -61 128 0 70 21 109 73 133 49 22 59 22 109 9z m-2116
-62 l31 -63 32 63 c28 55 35 62 60 62 l30 0 -50 -92 c-38 -73 -49 -103 -49
-140 0 -44 -2 -48 -25 -48 -23 0 -25 3 -25 50 0 40 -10 69 -45 140 l-45 90 28
0 c24 0 32 -8 58 -62z m364 42 c0 -18 -7 -20 -65 -20 l-65 0 0 -40 0 -40 60 0
c53 0 60 -2 60 -20 0 -18 -7 -20 -60 -20 l-60 0 0 -40 0 -40 65 0 c58 0 65 -2
65 -20 0 -19 -7 -20 -90 -20 l-90 0 0 140 0 140 90 0 c83 0 90 -1 90 -20z
m224 5 c45 -22 66 -62 66 -129 0 -50 -4 -60 -34 -94 -34 -36 -36 -37 -120 -41
l-86 -3 0 141 0 141 71 0 c43 0 84 -6 103 -15z m176 5 c0 -24 -41 -90 -56 -90
-15 0 -15 22 2 83 6 18 54 25 54 7z m560 -10 c25 -25 26 -74 3 -97 -17 -17
-17 -19 5 -40 29 -29 28 -68 -3 -98 -22 -22 -32 -25 -105 -25 l-80 0 0 140 0
140 80 0 c67 0 83 -3 100 -20z m130 -100 l0 -120 60 0 c53 0 60 -2 60 -20 0
-19 -7 -20 -90 -20 l-90 0 0 140 0 140 30 0 30 0 0 -120z"/>
<path d="M3253 1956 c-24 -21 -28 -32 -28 -74 0 -57 20 -87 64 -97 43 -9 80
10 97 50 42 100 -55 188 -133 121z"/>
<path d="M2024 1967 c-3 -8 -4 -52 -2 -98 l3 -84 45 3 c76 4 112 72 79 146
-18 39 -113 63 -125 33z"/>
<path d="M2750 1940 c0 -36 3 -40 24 -40 40 0 76 18 76 38 0 28 -20 42 -62 42
-38 0 -38 0 -38 -40z"/>
<path d="M2750 1820 c0 -40 0 -40 39 -40 23 0 46 7 55 16 19 18 19 20 6 45 -8
14 -21 19 -55 19 l-45 0 0 -40z"/>
</g>
</svg>
